<svg xmlns="http://www.w3.org/2000/svg" viewBox="0 0 540 100" width="540" height="100">
  <defs>
    <!-- White accent with subtle opacity gradient for dimensionality -->
    <linearGradient id="whiteAccent" x1="0.3" y1="0" x2="0.7" y2="1">
      <stop offset="0%" stop-color="#F8F9FA" stop-opacity="0.55"/>
      <stop offset="25%" stop-color="#F8F9FA" stop-opacity="0.75"/>
      <stop offset="48%" stop-color="#FFFFFF" stop-opacity="1"/>
      <stop offset="72%" stop-color="#F8F9FA" stop-opacity="0.75"/>
      <stop offset="100%" stop-color="#F8F9FA" stop-opacity="0.55"/>
    </linearGradient>
    <linearGradient id="whiteRule" x1="0" y1="0" x2="1" y2="0">
      <stop offset="0%" stop-color="#F8F9FA" stop-opacity="0"/>
      <stop offset="12%" stop-color="#F8F9FA" stop-opacity="0.25"/>
      <stop offset="50%" stop-color="#FFFFFF" stop-opacity="0.35"/>
      <stop offset="88%" stop-color="#F8F9FA" stop-opacity="0.25"/>
      <stop offset="100%" stop-color="#F8F9FA" stop-opacity="0"/>
    </linearGradient>
  </defs>

  <!--
    CALL'VANTAGE White Wordmark
    For use on dark / navy backgrounds
    All elements in white (#F8F9FA), accent uses opacity gradient
  -->

  <!-- ============ CALL (Bold, White) ============ -->

  <!-- C -->
  <path d="
    M 42,27
    C 34,27 28,29.5 24,34.5
    C 20,39.5 18,46 18,53.5
    C 18,61 20,67 24,72
    C 28,77 34,79.5 42,79.5
    C 48,79.5 53,77.8 57,74.5
    C 61,71.2 63.5,66.5 64.5,60.5
    L 55,60.5
    C 54.2,64.5 52.5,67.5 50,69.5
    C 47.5,71.5 44.5,72.5 42,72.5
    C 37.5,72.5 34,70.8 31.5,67.5
    C 29,64.2 27.8,59.5 27.8,53.5
    C 27.8,47.5 29,42.8 31.5,39.5
    C 34,36.2 37.5,34.5 42,34.5
    C 44.5,34.5 47.5,35.5 50,37.5
    C 52.5,39.5 54.2,42.5 55,46.5
    L 64.5,46.5
    C 63.5,40.5 61,35.8 57,32.5
    C 53,29.2 48,27 42,27 Z
  " fill="#F8F9FA"/>

  <!-- A -->
  <path d="
    M 90.5,28 L 81,28 L 66.5,79 L 76,79
    L 79,68.5 L 93,68.5
    L 96,79 L 105.5,79 L 90.5,28 Z
    M 81,61.5 L 86,43 L 91,61.5 L 81,61.5 Z
  " fill="#F8F9FA"/>

  <!-- L -->
  <path d="
    M 112,28 L 112,79 L 137,79 L 137,72 L 121.5,72 L 121.5,28 Z
  " fill="#F8F9FA"/>

  <!-- L -->
  <path d="
    M 144,28 L 144,79 L 169,79 L 169,72 L 153.5,72 L 153.5,28 Z
  " fill="#F8F9FA"/>

  <!-- ============ THE WHITE ACCENT ============ -->
  <path d="
    M 181,26
    C 181.8,25.5 182.8,25.7 183.2,26.5
    L 185.5,32
    C 186.2,33.8 186.5,35.8 186.3,37.8
    L 184.2,54
    C 183.9,56.2 183.2,57.5 182,57.8
    C 181,58 180.2,57.3 179.7,56
    L 178.8,53
    C 178.3,51.5 178.1,49.8 178.4,48
    L 180.2,33.5
    C 180.4,32 180.3,30.8 179.8,29.8
    L 179,27.5
    C 178.5,26.3 179.5,25.5 181,26 Z
  " fill="url(#whiteAccent)"/>

  <!-- ============ VANTAGE (Light, White) ============ -->

  <!-- V -->
  <path d="
    M 196,28 L 196,28 L 210,70 L 213,70 L 227,28 L 222.5,28
    L 211.5,63 L 200.5,28 Z
  " fill="#F8F9FA"/>

  <!-- A -->
  <path d="
    M 249,28 L 245.5,28 L 233,79 L 237.5,79
    L 240.5,68.5 L 254,68.5
    L 257,79 L 261.5,79 L 249,28 Z
    M 242,64 L 247.2,44.5 L 252.5,64 L 242,64 Z
  " fill="#F8F9FA"/>

  <!-- N -->
  <path d="
    M 270,28 L 270,79 L 274,79 L 274,38
    L 294.5,79 L 298.5,79 L 298.5,28 L 294.5,28
    L 294.5,69 L 274,28 Z
  " fill="#F8F9FA"/>

  <!-- T -->
  <path d="
    M 308,28 L 308,32.5 L 321,32.5 L 321,79 L 325.5,79
    L 325.5,32.5 L 338.5,32.5 L 338.5,28 Z
  " fill="#F8F9FA"/>

  <!-- A -->
  <path d="
    M 361,28 L 357.5,28 L 345,79 L 349.5,79
    L 352.5,68.5 L 366,68.5
    L 369,79 L 373.5,79 L 361,28 Z
    M 354,64 L 359.2,44.5 L 364.5,64 L 354,64 Z
  " fill="#F8F9FA"/>

  <!-- G -->
  <path d="
    M 401,27
    C 395,27 390.5,29.5 387,34.5
    C 383.5,39.5 382,46 382,53.5
    C 382,61 383.5,67 387,72
    C 390.5,77 395,79.5 401,79.5
    C 407,79.5 411.5,77 415,72
    C 418.5,67 420,61 420,53.5
    L 420,52.5 L 402,52.5 L 402,57 L 415.5,57
    L 415.5,53.5
    C 415.5,60 414.3,65 412,68.5
    C 409.7,72 406,73.5 401,73.5
    C 396,73.5 392.5,71.5 390,67.5
    C 387.5,63.5 386.5,59 386.5,53.5
    C 386.5,48 387.5,43.5 390,39.5
    C 392.5,35.5 396,34 401,34
    C 404.5,34 407.2,35 409.5,37
    C 411.8,39 413.2,41.8 414,45.5
    L 418.5,45.5
    C 417.5,40.5 415.5,36.5 412.5,33.5
    C 409.5,30.5 405.5,27 401,27 Z
  " fill="#F8F9FA"/>

  <!-- E -->
  <path d="
    M 428,28 L 428,79 L 454,79 L 454,74.5
    L 432.5,74.5 L 432.5,55.5 L 450,55.5
    L 450,51 L 432.5,51 L 432.5,32.5
    L 454,32.5 L 454,28 Z
  " fill="#F8F9FA"/>

  <!-- Thin white baseline rule -->
  <line x1="16" y1="86" x2="456" y2="86" stroke="url(#whiteRule)" stroke-width="0.5"/>
</svg>