<svg xmlns="http://www.w3.org/2000/svg" viewBox="0 0 32 32" width="32" height="32">
  <defs>
    <linearGradient id="favGold" x1="0.3" y1="0" x2="0.7" y2="1">
      <stop offset="0%" stop-color="#A67C30"/>
      <stop offset="25%" stop-color="#C9A84C"/>
      <stop offset="48%" stop-color="#E8D48B"/>
      <stop offset="72%" stop-color="#C9A84C"/>
      <stop offset="100%" stop-color="#A67C30"/>
    </linearGradient>
  </defs>

  <!--
    CALL'VANTAGE Favicon — 32x32
    Navy rounded-rect, simplified bold C'V
    Maximum legibility at tiny sizes, no fine details
  -->

  <!-- Navy background -->
  <rect x="0" y="0" width="32" height="32" rx="4" ry="4" fill="#0A1628"/>

  <!-- C (bold, simplified for small size) -->
  <path d="
    M 11.5,8
    C 9.5,8 8,8.8 7,10.5
    C 6,12.2 5.5,14.5 5.5,17
    C 5.5,19.5 6,21.8 7,23.5
    C 8,25.2 9.5,26 11.5,26
    C 13,26 14.2,25.4 15.2,24.2
    C 16,23 16.5,21.5 16.8,19.5
    L 14,19.5
    C 13.8,20.8 13.3,21.8 12.7,22.5
    C 12.1,23.2 11.5,23.5 11.5,23.5
    C 10.2,23.5 9.3,22.8 8.5,21.5
    C 7.8,20.2 7.5,18.5 7.5,17
    C 7.5,15.5 7.8,13.8 8.5,12.5
    C 9.3,11.2 10.2,10.5 11.5,10.5
    C 11.5,10.5 12.1,10.8 12.7,11.5
    C 13.3,12.2 13.8,13.2 14,14.5
    L 16.8,14.5
    C 16.5,12.5 16,11 15.2,9.8
    C 14.2,8.6 13,8 11.5,8 Z
  " fill="#F8F9FA"/>

  <!-- Golden Accent (simplified, bold stroke) -->
  <path d="
    M 18,6.5
    C 18.3,6.2 18.8,6.3 19,6.8
    L 19.7,8.5
    C 19.9,9.1 20,9.8 19.8,10.5
    L 19,16
    C 18.9,16.8 18.5,17.2 18,17.3
    C 17.6,17.4 17.3,17.1 17.1,16.5
    L 16.8,15.5
    C 16.6,14.9 16.5,14.2 16.7,13.5
    L 17.3,9.2
    C 17.4,8.7 17.3,8.3 17.1,7.8
    L 16.9,7.2
    C 16.7,6.6 17.3,6.1 18,6.5 Z
  " fill="url(#favGold)"/>

  <!-- V (bold, simplified for small size) -->
  <path d="
    M 20,9 L 23.5,24 L 25,24 L 28.5,9 L 26.5,9
    L 24.2,20.5 L 22,9 Z
  " fill="#F8F9FA"/>
</svg>